<?xml version="1.0" encoding="UTF-8"?>
<svg id="Layer_2" data-name="Layer 2" xmlns="http://www.w3.org/2000/svg" viewBox="0 0 138.25 160.89">
  <defs>
    <style>
      .cls-1 {
        fill: rgb(248 250 252);
        stroke-width: 0px;
      }
    </style>
  </defs>
  <g id="Layer_1-2" data-name="Layer 1">
    <path class="cls-1" d="m136.41,85.12s-14.02,13.24-23.69,10.2c-25.25-7.95-37.87,1.29-49.04,11.94-1.62,1.54-3.34,3.79-3.01,5.8,3.82,23.49-6.48,35.51-27.15,37.76-5.87.49-11.41-.78-16.16-3.33-1.83-.98-4.01-1.11-5.97-.43-3.37,1.18-5,2.39-6.57,7.72-.4,1.37-.43,2.87-.26,4.35.21,1.74-2.19,2.47-2.91.87-.01-.03-.02-.05-.03-.08-2.67-6.13-2.21-14.84,2.63-22.91.79-1.39.69-3.01.09-4.5-1.57-3.9-2.33-6.32-2.23-11.1.23-20.36,10.88-27.03,31.51-28.4,1.99-.13,4.15-1.65,4.77-2.54,6.03-8.55,7.9-27.04.4-36.12-15.48-18.74,11.53-27.95,2.21-41.93-2.36-3.54-5.02-6.05-7.68-7.82-2.32-1.54-.82-5.17,1.88-4.51,7.64,1.87,15.95,7.15,20.83,20.17,9.05,24.11-.88,55.13-11.53,72.93-2.26,3.77,2.12,6.22,4.3,3.13,8.85-12.56,27.11-31.9,31.13-50.58,3.29-15.29,25.48-17.95,35.94-13.47,2.31.99,1.82,4.4-.68,4.73-15.41,1.83-16.44,20.35-28.4,28.84-11.96,8.49-19.88,19.45-32.65,34.13-2.98,3.42,1.22,6.71,3.46,4.2,9.58-10.73,30.13-24.26,56.04-24.8,4.73-.1,14.27.29,22.28.85,2.8.2,3.2,4.16.49,4.91Z"/>
  </g>
</svg>